<?xml version="1.0" encoding="UTF-8" standalone="no"?>
<!-- Created with Inkscape (http://www.inkscape.org/) -->

<svg
   xmlns:dc="http://purl.org/dc/elements/1.1/"
   xmlns:cc="http://creativecommons.org/ns#"
   xmlns:rdf="http://www.w3.org/1999/02/22-rdf-syntax-ns#"
   xmlns:svg="http://www.w3.org/2000/svg"
   xmlns="http://www.w3.org/2000/svg"
   xmlns:sodipodi="http://sodipodi.sourceforge.net/DTD/sodipodi-0.dtd"
   xmlns:inkscape="http://www.inkscape.org/namespaces/inkscape"
   width="744.09448819"
   height="1052.3622047"
   id="svg11044"
   version="1.1"
   inkscape:version="0.48.1 "
   sodipodi:docname="cellprocessor_all_iterations_inter_cell.svg">
  <defs
     id="defs11046" />
  <sodipodi:namedview
     id="base"
     pagecolor="#ffffff"
     bordercolor="#666666"
     borderopacity="1.0"
     inkscape:pageopacity="0.0"
     inkscape:pageshadow="2"
     inkscape:zoom="1.4755438"
     inkscape:cx="115.05777"
     inkscape:cy="900.08663"
     inkscape:document-units="px"
     inkscape:current-layer="g4169"
     showgrid="true"
     inkscape:window-width="1280"
     inkscape:window-height="738"
     inkscape:window-x="-8"
     inkscape:window-y="-8"
     inkscape:window-maximized="1"
     inkscape:snap-global="true"
     inkscape:snap-bbox="true"
     inkscape:bbox-paths="true">
    <inkscape:grid
       type="xygrid"
       id="grid11052"
       units="cm"
       empspacing="4"
       visible="true"
       enabled="true"
       snapvisiblegridlinesonly="true"
       spacingx="1cm"
       spacingy="1cm"
       originx="0cm"
       originy="0.5cm" />
  </sodipodi:namedview>
  <metadata
     id="metadata11049">
    <rdf:RDF>
      <cc:Work
         rdf:about="">
        <dc:format>image/svg+xml</dc:format>
        <dc:type
           rdf:resource="http://purl.org/dc/dcmitype/StillImage" />
        <dc:title></dc:title>
      </cc:Work>
    </rdf:RDF>
  </metadata>
  <g
     inkscape:label="Layer 1"
     inkscape:groupmode="layer"
     id="layer1">
    <g
       id="g4167"
       transform="translate(-10.013409,94.799219)">
      <g
         id="g4169"
         transform="translate(10.013409,-59.366145)">
        <rect
           style="opacity:0.98000003999999996;fill:none;stroke:#000000;stroke-width:1.36;stroke-miterlimit:4;stroke-dasharray:none"
           id="rect4392"
           width="14.093677"
           height="14.093677"
           x="135.28207"
           y="7.8820992" />
        <rect
           y="7.8820992"
           x="149.37575"
           height="14.093677"
           width="14.093677"
           id="rect5162"
           style="opacity:0.98000003999999996;fill:none;stroke:#000000;stroke-width:1.36;stroke-miterlimit:4;stroke-dasharray:none" />
        <rect
           y="7.8820992"
           x="163.46942"
           height="14.093677"
           width="14.093677"
           id="rect5164"
           style="opacity:0.98000003999999996;fill:none;stroke:#000000;stroke-width:1.36;stroke-miterlimit:4;stroke-dasharray:none" />
        <rect
           style="opacity:0.98000003999999996;fill:none;stroke:#000000;stroke-width:1.36;stroke-miterlimit:4;stroke-dasharray:none"
           id="rect5166"
           width="14.093677"
           height="14.093677"
           x="177.56311"
           y="7.8820992" />
        <rect
           y="7.8820992"
           x="191.65678"
           height="14.093677"
           width="14.093677"
           id="rect5168"
           style="opacity:0.98000003999999996;fill:none;stroke:#000000;stroke-width:1.36;stroke-miterlimit:4;stroke-dasharray:none" />
        <rect
           style="opacity:0.98000003999999996;fill:none;stroke:#000000;stroke-width:1.36;stroke-miterlimit:4;stroke-dasharray:none"
           id="rect5170"
           width="14.093677"
           height="14.093677"
           x="205.75046"
           y="7.8820992" />
        <rect
           style="opacity:0.98000003999999996;fill:none;stroke:#000000;stroke-width:1.36;stroke-miterlimit:4;stroke-dasharray:none"
           id="rect5172"
           width="14.093677"
           height="14.093677"
           x="219.84415"
           y="7.8820992" />
        <rect
           y="7.8820992"
           x="233.93782"
           height="14.093677"
           width="14.093677"
           id="rect5174"
           style="opacity:0.98000003999999996;fill:none;stroke:#000000;stroke-width:1.36;stroke-miterlimit:4;stroke-dasharray:none" />
        <g
           id="g5192"
           transform="matrix(0,-0.39775488,0.39775488,0,104.276,205.19358)"
           style="fill:none;stroke:#000000;stroke-width:3.41919124;stroke-miterlimit:4;stroke-dasharray:none">
          <rect
             style="opacity:0.98000003999999996;fill:none;stroke:#000000;stroke-width:3.41919124;stroke-miterlimit:4;stroke-dasharray:none"
             id="rect5176"
             width="35.433071"
             height="35.433071"
             x="141.73228"
             y="42.519665"
             transform="translate(0,-35.433074)" />
          <rect
             y="7.0865889"
             x="177.16536"
             height="35.433071"
             width="35.433071"
             id="rect5178"
             style="opacity:0.98000003999999996;fill:none;stroke:#000000;stroke-width:3.41919124;stroke-miterlimit:4;stroke-dasharray:none" />
          <rect
             y="7.0865908"
             x="212.59842"
             height="35.433071"
             width="35.433071"
             id="rect5180"
             style="opacity:0.98000003999999996;fill:none;stroke:#000000;stroke-width:3.41919124;stroke-miterlimit:4;stroke-dasharray:none" />
          <rect
             style="opacity:0.98000003999999996;fill:none;stroke:#000000;stroke-width:3.41919124;stroke-miterlimit:4;stroke-dasharray:none"
             id="rect5182"
             width="35.433071"
             height="35.433071"
             x="248.03149"
             y="7.0865889" />
          <rect
             y="7.0865908"
             x="283.46457"
             height="35.433071"
             width="35.433071"
             id="rect5184"
             style="opacity:0.98000003999999996;fill:none;stroke:#000000;stroke-width:3.41919124;stroke-miterlimit:4;stroke-dasharray:none" />
          <rect
             style="opacity:0.98000003999999996;fill:none;stroke:#000000;stroke-width:3.41919124;stroke-miterlimit:4;stroke-dasharray:none"
             id="rect5186"
             width="35.433071"
             height="35.433071"
             x="318.89764"
             y="7.0865889" />
          <rect
             style="opacity:0.98000003999999996;fill:none;stroke:#000000;stroke-width:3.41919124;stroke-miterlimit:4;stroke-dasharray:none"
             id="rect5188"
             width="35.433071"
             height="35.433071"
             x="354.33072"
             y="7.0865908" />
          <rect
             y="7.0865889"
             x="389.76379"
             height="35.433071"
             width="35.433071"
             id="rect5190"
             style="opacity:0.98000003999999996;fill:none;stroke:#000000;stroke-width:3.41919124;stroke-miterlimit:4;stroke-dasharray:none" />
        </g>
        <path
           sodipodi:type="arc"
           style="opacity:0.98000004;fill:#ff9955;stroke:none"
           id="path5220"
           sodipodi:cx="159.44882"
           sodipodi:cy="131.10234"
           sodipodi:rx="17.716536"
           sodipodi:ry="17.716536"
           d="m 177.16536,131.10234 c 0,9.78457 -7.93197,17.71654 -17.71654,17.71654 -9.78457,0 -17.71653,-7.93197 -17.71653,-17.71654 0,-9.78457 7.93196,-17.71653 17.71653,-17.71653 9.78457,0 17.71654,7.93196 17.71654,17.71653 z"
           transform="matrix(0.39775488,0,0,0.39775488,78.509612,-9.4280598)" />
        <path
           transform="matrix(0.39775488,0,0,0.39775488,93.001044,-9.0302998)"
           d="m 177.16536,131.10234 c 0,9.78457 -7.93197,17.71654 -17.71654,17.71654 -9.78457,0 -17.71653,-7.93197 -17.71653,-17.71654 0,-9.78457 7.93196,-17.71653 17.71653,-17.71653 9.78457,0 17.71654,7.93196 17.71654,17.71653 z"
           sodipodi:ry="17.716536"
           sodipodi:rx="17.716536"
           sodipodi:cy="131.10234"
           sodipodi:cx="159.44882"
           id="path5222"
           style="opacity:0.98000004;fill:#ff9955;stroke:none"
           sodipodi:type="arc" />
        <path
           sodipodi:type="arc"
           style="opacity:0.98000004;fill:#ff9955;stroke:none"
           id="path5224"
           sodipodi:cx="159.44882"
           sodipodi:cy="131.10234"
           sodipodi:rx="17.716536"
           sodipodi:ry="17.716536"
           d="m 177.16536,131.10234 c 0,9.78457 -7.93197,17.71654 -17.71654,17.71654 -9.78457,0 -17.71653,-7.93197 -17.71653,-17.71654 0,-9.78457 7.93196,-17.71653 17.71653,-17.71653 9.78457,0 17.71654,7.93196 17.71654,17.71653 z"
           transform="matrix(0.39775488,0,0,0.39775488,107.09472,-9.0302998)" />
        <path
           transform="matrix(0.39775488,0,0,0.39775488,120.79064,-9.4280598)"
           d="m 177.16536,131.10234 c 0,9.78457 -7.93197,17.71654 -17.71654,17.71654 -9.78457,0 -17.71653,-7.93197 -17.71653,-17.71654 0,-9.78457 7.93196,-17.71653 17.71653,-17.71653 9.78457,0 17.71654,7.93196 17.71654,17.71653 z"
           sodipodi:ry="17.716536"
           sodipodi:rx="17.716536"
           sodipodi:cy="131.10234"
           sodipodi:cx="159.44882"
           id="path5226"
           style="opacity:0.98000004;fill:#ff9955;stroke:none"
           sodipodi:type="arc" />
        <path
           sodipodi:type="arc"
           style="opacity:0.98000004;fill:#ff9955;stroke:none"
           id="path5228"
           sodipodi:cx="159.44882"
           sodipodi:cy="131.10234"
           sodipodi:rx="17.716536"
           sodipodi:ry="17.716536"
           d="m 177.16536,131.10234 c 0,9.78457 -7.93197,17.71654 -17.71654,17.71654 -9.78457,0 -17.71653,-7.93197 -17.71653,-17.71654 0,-9.78457 7.93196,-17.71653 17.71653,-17.71653 9.78457,0 17.71654,7.93196 17.71654,17.71653 z"
           transform="matrix(0.39775488,0,0,0.39775488,135.28207,-9.0302998)" />
        <path
           transform="matrix(0.39775488,0,0,0.39775488,149.37575,-9.0302998)"
           d="m 177.16536,131.10234 c 0,9.78457 -7.93197,17.71654 -17.71654,17.71654 -9.78457,0 -17.71653,-7.93197 -17.71653,-17.71654 0,-9.78457 7.93196,-17.71653 17.71653,-17.71653 9.78457,0 17.71654,7.93196 17.71654,17.71653 z"
           sodipodi:ry="17.716536"
           sodipodi:rx="17.716536"
           sodipodi:cy="131.10234"
           sodipodi:cx="159.44882"
           id="path5230"
           style="opacity:0.98000004;fill:#ff9955;stroke:none"
           sodipodi:type="arc" />
        <path
           transform="matrix(0.39775488,0,0,0.39775488,163.46942,-9.0302998)"
           d="m 177.16536,131.10234 c 0,9.78457 -7.93197,17.71654 -17.71654,17.71654 -9.78457,0 -17.71653,-7.93197 -17.71653,-17.71654 0,-9.78457 7.93196,-17.71653 17.71653,-17.71653 9.78457,0 17.71654,7.93196 17.71654,17.71653 z"
           sodipodi:ry="17.716536"
           sodipodi:rx="17.716536"
           sodipodi:cy="131.10234"
           sodipodi:cx="159.44882"
           id="path5232"
           style="opacity:0.98000004;fill:#ff9955;stroke:none"
           sodipodi:type="arc" />
        <path
           sodipodi:type="arc"
           style="opacity:0.98000004;fill:#ff9955;stroke:none"
           id="path5234"
           sodipodi:cx="159.44882"
           sodipodi:cy="131.10234"
           sodipodi:rx="17.716536"
           sodipodi:ry="17.716536"
           d="m 177.16536,131.10234 c 0,9.78457 -7.93197,17.71654 -17.71654,17.71654 -9.78457,0 -17.71653,-7.93197 -17.71653,-17.71654 0,-9.78457 7.93196,-17.71653 17.71653,-17.71653 9.78457,0 17.71654,7.93196 17.71654,17.71653 z"
           transform="matrix(0.39775488,0,0,0.39775488,177.5631,-9.0302998)" />
        <path
           transform="matrix(0.39775488,0,0,0.39775488,78.509614,4.6656202)"
           d="m 177.16536,131.10234 c 0,9.78457 -7.93197,17.71654 -17.71654,17.71654 -9.78457,0 -17.71653,-7.93197 -17.71653,-17.71654 0,-9.78457 7.93196,-17.71653 17.71653,-17.71653 9.78457,0 17.71654,7.93196 17.71654,17.71653 z"
           sodipodi:ry="17.716536"
           sodipodi:rx="17.716536"
           sodipodi:cy="131.10234"
           sodipodi:cx="159.44882"
           id="path5236"
           style="opacity:0.98000004;fill:#ff9955;stroke:none"
           sodipodi:type="arc" />
        <path
           sodipodi:type="arc"
           style="opacity:0.98000004;fill:#ff9955;stroke:none"
           id="path5238"
           sodipodi:cx="159.44882"
           sodipodi:cy="131.10234"
           sodipodi:rx="17.716536"
           sodipodi:ry="17.716536"
           d="m 177.16536,131.10234 c 0,9.78457 -7.93197,17.71654 -17.71654,17.71654 -9.78457,0 -17.71653,-7.93197 -17.71653,-17.71654 0,-9.78457 7.93196,-17.71653 17.71653,-17.71653 9.78457,0 17.71654,7.93196 17.71654,17.71653 z"
           transform="matrix(0.39775488,0,0,0.39775488,93.001046,5.0633702)" />
        <path
           transform="matrix(0.39775488,0,0,0.39775488,107.09472,5.0633702)"
           d="m 177.16536,131.10234 c 0,9.78457 -7.93197,17.71654 -17.71654,17.71654 -9.78457,0 -17.71653,-7.93197 -17.71653,-17.71654 0,-9.78457 7.93196,-17.71653 17.71653,-17.71653 9.78457,0 17.71654,7.93196 17.71654,17.71653 z"
           sodipodi:ry="17.716536"
           sodipodi:rx="17.716536"
           sodipodi:cy="131.10234"
           sodipodi:cx="159.44882"
           id="path5240"
           style="opacity:0.98000004;fill:#ff9955;stroke:none"
           sodipodi:type="arc" />
        <path
           sodipodi:type="arc"
           style="opacity:0.98000004;fill:#ff9955;stroke:none"
           id="path5242"
           sodipodi:cx="159.44882"
           sodipodi:cy="131.10234"
           sodipodi:rx="17.716536"
           sodipodi:ry="17.716536"
           d="m 177.16536,131.10234 c 0,9.78457 -7.93197,17.71654 -17.71654,17.71654 -9.78457,0 -17.71653,-7.93197 -17.71653,-17.71654 0,-9.78457 7.93196,-17.71653 17.71653,-17.71653 9.78457,0 17.71654,7.93196 17.71654,17.71653 z"
           transform="matrix(0.39775488,0,0,0.39775488,120.79064,4.6656202)" />
        <path
           transform="matrix(0.39775488,0,0,0.39775488,135.28207,5.0633702)"
           d="m 177.16536,131.10234 c 0,9.78457 -7.93197,17.71654 -17.71654,17.71654 -9.78457,0 -17.71653,-7.93197 -17.71653,-17.71654 0,-9.78457 7.93196,-17.71653 17.71653,-17.71653 9.78457,0 17.71654,7.93196 17.71654,17.71653 z"
           sodipodi:ry="17.716536"
           sodipodi:rx="17.716536"
           sodipodi:cy="131.10234"
           sodipodi:cx="159.44882"
           id="path5244"
           style="opacity:0.98000004;fill:#ff9955;stroke:none"
           sodipodi:type="arc" />
        <path
           sodipodi:type="arc"
           style="opacity:0.98000004;fill:#ff9955;stroke:none"
           id="path5246"
           sodipodi:cx="159.44882"
           sodipodi:cy="131.10234"
           sodipodi:rx="17.716536"
           sodipodi:ry="17.716536"
           d="m 177.16536,131.10234 c 0,9.78457 -7.93197,17.71654 -17.71654,17.71654 -9.78457,0 -17.71653,-7.93197 -17.71653,-17.71654 0,-9.78457 7.93196,-17.71653 17.71653,-17.71653 9.78457,0 17.71654,7.93196 17.71654,17.71653 z"
           transform="matrix(0.39775488,0,0,0.39775488,149.37575,5.0633702)" />
        <path
           sodipodi:type="arc"
           style="opacity:0.98000004;fill:#ff9955;stroke:none"
           id="path5248"
           sodipodi:cx="159.44882"
           sodipodi:cy="131.10234"
           sodipodi:rx="17.716536"
           sodipodi:ry="17.716536"
           d="m 177.16536,131.10234 c 0,9.78457 -7.93197,17.71654 -17.71654,17.71654 -9.78457,0 -17.71653,-7.93197 -17.71653,-17.71654 0,-9.78457 7.93196,-17.71653 17.71653,-17.71653 9.78457,0 17.71654,7.93196 17.71654,17.71653 z"
           transform="matrix(0.39775488,0,0,0.39775488,163.46942,5.0633702)" />
        <path
           transform="matrix(0.39775488,0,0,0.39775488,177.5631,5.0633702)"
           d="m 177.16536,131.10234 c 0,9.78457 -7.93197,17.71654 -17.71654,17.71654 -9.78457,0 -17.71653,-7.93197 -17.71653,-17.71654 0,-9.78457 7.93196,-17.71653 17.71653,-17.71653 9.78457,0 17.71654,7.93196 17.71654,17.71653 z"
           sodipodi:ry="17.716536"
           sodipodi:rx="17.716536"
           sodipodi:cy="131.10234"
           sodipodi:cx="159.44882"
           id="path5250"
           style="opacity:0.98000004;fill:#ff9955;stroke:none"
           sodipodi:type="arc" />
        <path
           transform="matrix(0.39775488,0,0,0.39775488,78.509613,18.75929)"
           d="m 177.16536,131.10234 c 0,9.78457 -7.93197,17.71654 -17.71654,17.71654 -9.78457,0 -17.71653,-7.93197 -17.71653,-17.71654 0,-9.78457 7.93196,-17.71653 17.71653,-17.71653 9.78457,0 17.71654,7.93196 17.71654,17.71653 z"
           sodipodi:ry="17.716536"
           sodipodi:rx="17.716536"
           sodipodi:cy="131.10234"
           sodipodi:cx="159.44882"
           id="path5252"
           style="opacity:0.98000004;fill:#ff9955;stroke:none"
           sodipodi:type="arc" />
        <path
           sodipodi:type="arc"
           style="opacity:0.98000004;fill:#ff9955;stroke:none"
           id="path5254"
           sodipodi:cx="159.44882"
           sodipodi:cy="131.10234"
           sodipodi:rx="17.716536"
           sodipodi:ry="17.716536"
           d="m 177.16536,131.10234 c 0,9.78457 -7.93197,17.71654 -17.71654,17.71654 -9.78457,0 -17.71653,-7.93197 -17.71653,-17.71654 0,-9.78457 7.93196,-17.71653 17.71653,-17.71653 9.78457,0 17.71654,7.93196 17.71654,17.71653 z"
           transform="matrix(0.39775488,0,0,0.39775488,93.001045,19.15705)" />
        <path
           transform="matrix(0.39775488,0,0,0.39775488,107.09472,19.15705)"
           d="m 177.16536,131.10234 c 0,9.78457 -7.93197,17.71654 -17.71654,17.71654 -9.78457,0 -17.71653,-7.93197 -17.71653,-17.71654 0,-9.78457 7.93196,-17.71653 17.71653,-17.71653 9.78457,0 17.71654,7.93196 17.71654,17.71653 z"
           sodipodi:ry="17.716536"
           sodipodi:rx="17.716536"
           sodipodi:cy="131.10234"
           sodipodi:cx="159.44882"
           id="path5256"
           style="opacity:0.98000004;fill:#ff9955;stroke:none"
           sodipodi:type="arc" />
        <path
           sodipodi:type="arc"
           style="opacity:0.98000004;fill:#ff9955;stroke:none"
           id="path5258"
           sodipodi:cx="159.44882"
           sodipodi:cy="131.10234"
           sodipodi:rx="17.716536"
           sodipodi:ry="17.716536"
           d="m 177.16536,131.10234 c 0,9.78457 -7.93197,17.71654 -17.71654,17.71654 -9.78457,0 -17.71653,-7.93197 -17.71653,-17.71654 0,-9.78457 7.93196,-17.71653 17.71653,-17.71653 9.78457,0 17.71654,7.93196 17.71654,17.71653 z"
           transform="matrix(0.39775488,0,0,0.39775488,120.79064,18.75929)" />
        <path
           transform="matrix(0.39775488,0,0,0.39775488,135.28207,19.15705)"
           d="m 177.16536,131.10234 c 0,9.78457 -7.93197,17.71654 -17.71654,17.71654 -9.78457,0 -17.71653,-7.93197 -17.71653,-17.71654 0,-9.78457 7.93196,-17.71653 17.71653,-17.71653 9.78457,0 17.71654,7.93196 17.71654,17.71653 z"
           sodipodi:ry="17.716536"
           sodipodi:rx="17.716536"
           sodipodi:cy="131.10234"
           sodipodi:cx="159.44882"
           id="path5260"
           style="opacity:0.98000004;fill:#ff9955;stroke:none"
           sodipodi:type="arc" />
        <path
           sodipodi:type="arc"
           style="opacity:0.98000004;fill:#ff9955;stroke:none"
           id="path5262"
           sodipodi:cx="159.44882"
           sodipodi:cy="131.10234"
           sodipodi:rx="17.716536"
           sodipodi:ry="17.716536"
           d="m 177.16536,131.10234 c 0,9.78457 -7.93197,17.71654 -17.71654,17.71654 -9.78457,0 -17.71653,-7.93197 -17.71653,-17.71654 0,-9.78457 7.93196,-17.71653 17.71653,-17.71653 9.78457,0 17.71654,7.93196 17.71654,17.71653 z"
           transform="matrix(0.39775488,0,0,0.39775488,149.37575,19.15705)" />
        <path
           sodipodi:type="arc"
           style="opacity:0.98000004;fill:#ff9955;stroke:none"
           id="path5264"
           sodipodi:cx="159.44882"
           sodipodi:cy="131.10234"
           sodipodi:rx="17.716536"
           sodipodi:ry="17.716536"
           d="m 177.16536,131.10234 c 0,9.78457 -7.93197,17.71654 -17.71654,17.71654 -9.78457,0 -17.71653,-7.93197 -17.71653,-17.71654 0,-9.78457 7.93196,-17.71653 17.71653,-17.71653 9.78457,0 17.71654,7.93196 17.71654,17.71653 z"
           transform="matrix(0.39775488,0,0,0.39775488,163.46942,19.15705)" />
        <path
           transform="matrix(0.39775488,0,0,0.39775488,177.5631,19.15705)"
           d="m 177.16536,131.10234 c 0,9.78457 -7.93197,17.71654 -17.71654,17.71654 -9.78457,0 -17.71653,-7.93197 -17.71653,-17.71654 0,-9.78457 7.93196,-17.71653 17.71653,-17.71653 9.78457,0 17.71654,7.93196 17.71654,17.71653 z"
           sodipodi:ry="17.716536"
           sodipodi:rx="17.716536"
           sodipodi:cy="131.10234"
           sodipodi:cx="159.44882"
           id="path5266"
           style="opacity:0.98000004;fill:#ff9955;stroke:none"
           sodipodi:type="arc" />
        <path
           sodipodi:type="arc"
           style="opacity:0.98000004;fill:#ff9955;stroke:none"
           id="path5268"
           sodipodi:cx="159.44882"
           sodipodi:cy="131.10234"
           sodipodi:rx="17.716536"
           sodipodi:ry="17.716536"
           d="m 177.16536,131.10234 c 0,9.78457 -7.93197,17.71654 -17.71654,17.71654 -9.78457,0 -17.71653,-7.93197 -17.71653,-17.71654 0,-9.78457 7.93196,-17.71653 17.71653,-17.71653 9.78457,0 17.71654,7.93196 17.71654,17.71653 z"
           transform="matrix(0.39775488,0,0,0.39775488,78.509615,32.85297)" />
        <path
           transform="matrix(0.39775488,0,0,0.39775488,93.001047,33.25073)"
           d="m 177.16536,131.10234 c 0,9.78457 -7.93197,17.71654 -17.71654,17.71654 -9.78457,0 -17.71653,-7.93197 -17.71653,-17.71654 0,-9.78457 7.93196,-17.71653 17.71653,-17.71653 9.78457,0 17.71654,7.93196 17.71654,17.71653 z"
           sodipodi:ry="17.716536"
           sodipodi:rx="17.716536"
           sodipodi:cy="131.10234"
           sodipodi:cx="159.44882"
           id="path5270"
           style="opacity:0.98000004;fill:#ff9955;stroke:none"
           sodipodi:type="arc" />
        <path
           sodipodi:type="arc"
           style="opacity:0.98000004;fill:#ff9955;stroke:none"
           id="path5272"
           sodipodi:cx="159.44882"
           sodipodi:cy="131.10234"
           sodipodi:rx="17.716536"
           sodipodi:ry="17.716536"
           d="m 177.16536,131.10234 c 0,9.78457 -7.93197,17.71654 -17.71654,17.71654 -9.78457,0 -17.71653,-7.93197 -17.71653,-17.71654 0,-9.78457 7.93196,-17.71653 17.71653,-17.71653 9.78457,0 17.71654,7.93196 17.71654,17.71653 z"
           transform="matrix(0.39775488,0,0,0.39775488,107.09472,33.25073)" />
        <path
           transform="matrix(0.39775488,0,0,0.39775488,120.79064,32.85297)"
           d="m 177.16536,131.10234 c 0,9.78457 -7.93197,17.71654 -17.71654,17.71654 -9.78457,0 -17.71653,-7.93197 -17.71653,-17.71654 0,-9.78457 7.93196,-17.71653 17.71653,-17.71653 9.78457,0 17.71654,7.93196 17.71654,17.71653 z"
           sodipodi:ry="17.716536"
           sodipodi:rx="17.716536"
           sodipodi:cy="131.10234"
           sodipodi:cx="159.44882"
           id="path5274"
           style="opacity:0.98000004;fill:#ff9955;stroke:none"
           sodipodi:type="arc" />
        <path
           sodipodi:type="arc"
           style="opacity:0.98000004;fill:#ff9955;stroke:none"
           id="path5276"
           sodipodi:cx="159.44882"
           sodipodi:cy="131.10234"
           sodipodi:rx="17.716536"
           sodipodi:ry="17.716536"
           d="m 177.16536,131.10234 c 0,9.78457 -7.93197,17.71654 -17.71654,17.71654 -9.78457,0 -17.71653,-7.93197 -17.71653,-17.71654 0,-9.78457 7.93196,-17.71653 17.71653,-17.71653 9.78457,0 17.71654,7.93196 17.71654,17.71653 z"
           transform="matrix(0.39775488,0,0,0.39775488,135.28207,33.25073)" />
        <path
           transform="matrix(0.39775488,0,0,0.39775488,149.37575,33.25073)"
           d="m 177.16536,131.10234 c 0,9.78457 -7.93197,17.71654 -17.71654,17.71654 -9.78457,0 -17.71653,-7.93197 -17.71653,-17.71654 0,-9.78457 7.93196,-17.71653 17.71653,-17.71653 9.78457,0 17.71654,7.93196 17.71654,17.71653 z"
           sodipodi:ry="17.716536"
           sodipodi:rx="17.716536"
           sodipodi:cy="131.10234"
           sodipodi:cx="159.44882"
           id="path5278"
           style="opacity:0.98000004;fill:#ff9955;stroke:none"
           sodipodi:type="arc" />
        <path
           transform="matrix(0.39775488,0,0,0.39775488,163.46942,33.25073)"
           d="m 177.16536,131.10234 c 0,9.78457 -7.93197,17.71654 -17.71654,17.71654 -9.78457,0 -17.71653,-7.93197 -17.71653,-17.71654 0,-9.78457 7.93196,-17.71653 17.71653,-17.71653 9.78457,0 17.71654,7.93196 17.71654,17.71653 z"
           sodipodi:ry="17.716536"
           sodipodi:rx="17.716536"
           sodipodi:cy="131.10234"
           sodipodi:cx="159.44882"
           id="path5280"
           style="opacity:0.98000004;fill:#ff9955;stroke:none"
           sodipodi:type="arc" />
        <path
           sodipodi:type="arc"
           style="opacity:0.98000004;fill:#ff9955;stroke:none"
           id="path5282"
           sodipodi:cx="159.44882"
           sodipodi:cy="131.10234"
           sodipodi:rx="17.716536"
           sodipodi:ry="17.716536"
           d="m 177.16536,131.10234 c 0,9.78457 -7.93197,17.71654 -17.71654,17.71654 -9.78457,0 -17.71653,-7.93197 -17.71653,-17.71654 0,-9.78457 7.93196,-17.71653 17.71653,-17.71653 9.78457,0 17.71654,7.93196 17.71654,17.71653 z"
           transform="matrix(0.39775488,0,0,0.39775488,177.5631,33.25073)" />
        <path
           transform="matrix(0.39775488,0,0,0.39775488,78.509613,46.94665)"
           d="m 177.16536,131.10234 c 0,9.78457 -7.93197,17.71654 -17.71654,17.71654 -9.78457,0 -17.71653,-7.93197 -17.71653,-17.71654 0,-9.78457 7.93196,-17.71653 17.71653,-17.71653 9.78457,0 17.71654,7.93196 17.71654,17.71653 z"
           sodipodi:ry="17.716536"
           sodipodi:rx="17.716536"
           sodipodi:cy="131.10234"
           sodipodi:cx="159.44882"
           id="path5284"
           style="opacity:0.98000004;fill:#ff9955;stroke:none"
           sodipodi:type="arc" />
        <path
           sodipodi:type="arc"
           style="opacity:0.98000004;fill:#ff9955;stroke:none"
           id="path5286"
           sodipodi:cx="159.44882"
           sodipodi:cy="131.10234"
           sodipodi:rx="17.716536"
           sodipodi:ry="17.716536"
           d="m 177.16536,131.10234 c 0,9.78457 -7.93197,17.71654 -17.71654,17.71654 -9.78457,0 -17.71653,-7.93197 -17.71653,-17.71654 0,-9.78457 7.93196,-17.71653 17.71653,-17.71653 9.78457,0 17.71654,7.93196 17.71654,17.71653 z"
           transform="matrix(0.39775488,0,0,0.39775488,93.001045,47.3444)" />
        <path
           transform="matrix(0.39775488,0,0,0.39775488,107.09472,47.3444)"
           d="m 177.16536,131.10234 c 0,9.78457 -7.93197,17.71654 -17.71654,17.71654 -9.78457,0 -17.71653,-7.93197 -17.71653,-17.71654 0,-9.78457 7.93196,-17.71653 17.71653,-17.71653 9.78457,0 17.71654,7.93196 17.71654,17.71653 z"
           sodipodi:ry="17.716536"
           sodipodi:rx="17.716536"
           sodipodi:cy="131.10234"
           sodipodi:cx="159.44882"
           id="path5288"
           style="opacity:0.98000004;fill:#ff9955;stroke:none"
           sodipodi:type="arc" />
        <path
           sodipodi:type="arc"
           style="opacity:0.98000004;fill:#ff9955;stroke:none"
           id="path5290"
           sodipodi:cx="159.44882"
           sodipodi:cy="131.10234"
           sodipodi:rx="17.716536"
           sodipodi:ry="17.716536"
           d="m 177.16536,131.10234 c 0,9.78457 -7.93197,17.71654 -17.71654,17.71654 -9.78457,0 -17.71653,-7.93197 -17.71653,-17.71654 0,-9.78457 7.93196,-17.71653 17.71653,-17.71653 9.78457,0 17.71654,7.93196 17.71654,17.71653 z"
           transform="matrix(0.39775488,0,0,0.39775488,120.79064,46.94665)" />
        <path
           transform="matrix(0.39775488,0,0,0.39775488,135.28207,47.3444)"
           d="m 177.16536,131.10234 c 0,9.78457 -7.93197,17.71654 -17.71654,17.71654 -9.78457,0 -17.71653,-7.93197 -17.71653,-17.71654 0,-9.78457 7.93196,-17.71653 17.71653,-17.71653 9.78457,0 17.71654,7.93196 17.71654,17.71653 z"
           sodipodi:ry="17.716536"
           sodipodi:rx="17.716536"
           sodipodi:cy="131.10234"
           sodipodi:cx="159.44882"
           id="path5292"
           style="opacity:0.98000004;fill:#ff9955;stroke:none"
           sodipodi:type="arc" />
        <path
           sodipodi:type="arc"
           style="opacity:0.98000004;fill:#ff9955;stroke:none"
           id="path5294"
           sodipodi:cx="159.44882"
           sodipodi:cy="131.10234"
           sodipodi:rx="17.716536"
           sodipodi:ry="17.716536"
           d="m 177.16536,131.10234 c 0,9.78457 -7.93197,17.71654 -17.71654,17.71654 -9.78457,0 -17.71653,-7.93197 -17.71653,-17.71654 0,-9.78457 7.93196,-17.71653 17.71653,-17.71653 9.78457,0 17.71654,7.93196 17.71654,17.71653 z"
           transform="matrix(0.39775488,0,0,0.39775488,149.37575,47.3444)" />
        <path
           sodipodi:type="arc"
           style="opacity:0.98000004;fill:#ff9955;stroke:none"
           id="path5296"
           sodipodi:cx="159.44882"
           sodipodi:cy="131.10234"
           sodipodi:rx="17.716536"
           sodipodi:ry="17.716536"
           d="m 177.16536,131.10234 c 0,9.78457 -7.93197,17.71654 -17.71654,17.71654 -9.78457,0 -17.71653,-7.93197 -17.71653,-17.71654 0,-9.78457 7.93196,-17.71653 17.71653,-17.71653 9.78457,0 17.71654,7.93196 17.71654,17.71653 z"
           transform="matrix(0.39775488,0,0,0.39775488,163.46942,47.3444)" />
        <path
           transform="matrix(0.39775488,0,0,0.39775488,177.5631,47.3444)"
           d="m 177.16536,131.10234 c 0,9.78457 -7.93197,17.71654 -17.71654,17.71654 -9.78457,0 -17.71653,-7.93197 -17.71653,-17.71654 0,-9.78457 7.93196,-17.71653 17.71653,-17.71653 9.78457,0 17.71654,7.93196 17.71654,17.71653 z"
           sodipodi:ry="17.716536"
           sodipodi:rx="17.716536"
           sodipodi:cy="131.10234"
           sodipodi:cx="159.44882"
           id="path5298"
           style="opacity:0.98000004;fill:#ff9955;stroke:none"
           sodipodi:type="arc" />
        <path
           sodipodi:type="arc"
           style="opacity:0.98000004;fill:#ff9955;stroke:none"
           id="path5300"
           sodipodi:cx="159.44882"
           sodipodi:cy="131.10234"
           sodipodi:rx="17.716536"
           sodipodi:ry="17.716536"
           d="m 177.16536,131.10234 c 0,9.78457 -7.93197,17.71654 -17.71654,17.71654 -9.78457,0 -17.71653,-7.93197 -17.71653,-17.71654 0,-9.78457 7.93196,-17.71653 17.71653,-17.71653 9.78457,0 17.71654,7.93196 17.71654,17.71653 z"
           transform="matrix(0.39775488,0,0,0.39775488,78.509615,61.04033)" />
        <path
           transform="matrix(0.39775488,0,0,0.39775488,93.001047,61.43808)"
           d="m 177.16536,131.10234 c 0,9.78457 -7.93197,17.71654 -17.71654,17.71654 -9.78457,0 -17.71653,-7.93197 -17.71653,-17.71654 0,-9.78457 7.93196,-17.71653 17.71653,-17.71653 9.78457,0 17.71654,7.93196 17.71654,17.71653 z"
           sodipodi:ry="17.716536"
           sodipodi:rx="17.716536"
           sodipodi:cy="131.10234"
           sodipodi:cx="159.44882"
           id="path5302"
           style="opacity:0.98000004;fill:#ff9955;stroke:none"
           sodipodi:type="arc" />
        <path
           sodipodi:type="arc"
           style="opacity:0.98000004;fill:#ff9955;stroke:none"
           id="path5304"
           sodipodi:cx="159.44882"
           sodipodi:cy="131.10234"
           sodipodi:rx="17.716536"
           sodipodi:ry="17.716536"
           d="m 177.16536,131.10234 c 0,9.78457 -7.93197,17.71654 -17.71654,17.71654 -9.78457,0 -17.71653,-7.93197 -17.71653,-17.71654 0,-9.78457 7.93196,-17.71653 17.71653,-17.71653 9.78457,0 17.71654,7.93196 17.71654,17.71653 z"
           transform="matrix(0.39775488,0,0,0.39775488,107.09472,61.43808)" />
        <path
           transform="matrix(0.39775488,0,0,0.39775488,120.79064,61.04033)"
           d="m 177.16536,131.10234 c 0,9.78457 -7.93197,17.71654 -17.71654,17.71654 -9.78457,0 -17.71653,-7.93197 -17.71653,-17.71654 0,-9.78457 7.93196,-17.71653 17.71653,-17.71653 9.78457,0 17.71654,7.93196 17.71654,17.71653 z"
           sodipodi:ry="17.716536"
           sodipodi:rx="17.716536"
           sodipodi:cy="131.10234"
           sodipodi:cx="159.44882"
           id="path5306"
           style="opacity:0.98000004;fill:#ff9955;stroke:none"
           sodipodi:type="arc" />
        <path
           sodipodi:type="arc"
           style="opacity:0.98000004;fill:#ff9955;stroke:none"
           id="path5308"
           sodipodi:cx="159.44882"
           sodipodi:cy="131.10234"
           sodipodi:rx="17.716536"
           sodipodi:ry="17.716536"
           d="m 177.16536,131.10234 c 0,9.78457 -7.93197,17.71654 -17.71654,17.71654 -9.78457,0 -17.71653,-7.93197 -17.71653,-17.71654 0,-9.78457 7.93196,-17.71653 17.71653,-17.71653 9.78457,0 17.71654,7.93196 17.71654,17.71653 z"
           transform="matrix(0.39775488,0,0,0.39775488,135.28207,61.43808)" />
        <path
           transform="matrix(0.39775488,0,0,0.39775488,149.37575,61.43808)"
           d="m 177.16536,131.10234 c 0,9.78457 -7.93197,17.71654 -17.71654,17.71654 -9.78457,0 -17.71653,-7.93197 -17.71653,-17.71654 0,-9.78457 7.93196,-17.71653 17.71653,-17.71653 9.78457,0 17.71654,7.93196 17.71654,17.71653 z"
           sodipodi:ry="17.716536"
           sodipodi:rx="17.716536"
           sodipodi:cy="131.10234"
           sodipodi:cx="159.44882"
           id="path5310"
           style="opacity:0.98000004;fill:#ff9955;stroke:none"
           sodipodi:type="arc" />
        <path
           transform="matrix(0.39775488,0,0,0.39775488,163.46942,61.43808)"
           d="m 177.16536,131.10234 c 0,9.78457 -7.93197,17.71654 -17.71654,17.71654 -9.78457,0 -17.71653,-7.93197 -17.71653,-17.71654 0,-9.78457 7.93196,-17.71653 17.71653,-17.71653 9.78457,0 17.71654,7.93196 17.71654,17.71653 z"
           sodipodi:ry="17.716536"
           sodipodi:rx="17.716536"
           sodipodi:cy="131.10234"
           sodipodi:cx="159.44882"
           id="path5312"
           style="opacity:0.98000004;fill:#ff9955;stroke:none"
           sodipodi:type="arc" />
        <path
           sodipodi:type="arc"
           style="opacity:0.98000004;fill:#ff9955;stroke:none"
           id="path5314"
           sodipodi:cx="159.44882"
           sodipodi:cy="131.10234"
           sodipodi:rx="17.716536"
           sodipodi:ry="17.716536"
           d="m 177.16536,131.10234 c 0,9.78457 -7.93197,17.71654 -17.71654,17.71654 -9.78457,0 -17.71653,-7.93197 -17.71653,-17.71654 0,-9.78457 7.93196,-17.71653 17.71653,-17.71653 9.78457,0 17.71654,7.93196 17.71654,17.71653 z"
           transform="matrix(0.39775488,0,0,0.39775488,177.5631,61.43808)" />
        <path
           sodipodi:type="arc"
           style="opacity:0.98000004;fill:#ff9955;stroke:none"
           id="path5316"
           sodipodi:cx="159.44882"
           sodipodi:cy="131.10234"
           sodipodi:rx="17.716536"
           sodipodi:ry="17.716536"
           d="m 177.16536,131.10234 c 0,9.78457 -7.93197,17.71654 -17.71654,17.71654 -9.78457,0 -17.71653,-7.93197 -17.71653,-17.71654 0,-9.78457 7.93196,-17.71653 17.71653,-17.71653 9.78457,0 17.71654,7.93196 17.71654,17.71653 z"
           transform="matrix(0.39775488,0,0,0.39775488,78.509614,75.134)" />
        <path
           transform="matrix(0.39775488,0,0,0.39775488,93.001046,75.53176)"
           d="m 177.16536,131.10234 c 0,9.78457 -7.93197,17.71654 -17.71654,17.71654 -9.78457,0 -17.71653,-7.93197 -17.71653,-17.71654 0,-9.78457 7.93196,-17.71653 17.71653,-17.71653 9.78457,0 17.71654,7.93196 17.71654,17.71653 z"
           sodipodi:ry="17.716536"
           sodipodi:rx="17.716536"
           sodipodi:cy="131.10234"
           sodipodi:cx="159.44882"
           id="path5318"
           style="opacity:0.98000004;fill:#ff9955;stroke:none"
           sodipodi:type="arc" />
        <path
           sodipodi:type="arc"
           style="opacity:0.98000004;fill:#ff9955;stroke:none"
           id="path5320"
           sodipodi:cx="159.44882"
           sodipodi:cy="131.10234"
           sodipodi:rx="17.716536"
           sodipodi:ry="17.716536"
           d="m 177.16536,131.10234 c 0,9.78457 -7.93197,17.71654 -17.71654,17.71654 -9.78457,0 -17.71653,-7.93197 -17.71653,-17.71654 0,-9.78457 7.93196,-17.71653 17.71653,-17.71653 9.78457,0 17.71654,7.93196 17.71654,17.71653 z"
           transform="matrix(0.39775488,0,0,0.39775488,107.09472,75.53176)" />
        <path
           transform="matrix(0.39775488,0,0,0.39775488,120.79064,75.134)"
           d="m 177.16536,131.10234 c 0,9.78457 -7.93197,17.71654 -17.71654,17.71654 -9.78457,0 -17.71653,-7.93197 -17.71653,-17.71654 0,-9.78457 7.93196,-17.71653 17.71653,-17.71653 9.78457,0 17.71654,7.93196 17.71654,17.71653 z"
           sodipodi:ry="17.716536"
           sodipodi:rx="17.716536"
           sodipodi:cy="131.10234"
           sodipodi:cx="159.44882"
           id="path5322"
           style="opacity:0.98000004;fill:#ff9955;stroke:none"
           sodipodi:type="arc" />
        <path
           sodipodi:type="arc"
           style="opacity:0.98000004;fill:#ff9955;stroke:none"
           id="path5324"
           sodipodi:cx="159.44882"
           sodipodi:cy="131.10234"
           sodipodi:rx="17.716536"
           sodipodi:ry="17.716536"
           d="m 177.16536,131.10234 c 0,9.78457 -7.93197,17.71654 -17.71654,17.71654 -9.78457,0 -17.71653,-7.93197 -17.71653,-17.71654 0,-9.78457 7.93196,-17.71653 17.71653,-17.71653 9.78457,0 17.71654,7.93196 17.71654,17.71653 z"
           transform="matrix(0.39775488,0,0,0.39775488,135.28207,75.53176)" />
        <path
           transform="matrix(0.39775488,0,0,0.39775488,149.37575,75.53176)"
           d="m 177.16536,131.10234 c 0,9.78457 -7.93197,17.71654 -17.71654,17.71654 -9.78457,0 -17.71653,-7.93197 -17.71653,-17.71654 0,-9.78457 7.93196,-17.71653 17.71653,-17.71653 9.78457,0 17.71654,7.93196 17.71654,17.71653 z"
           sodipodi:ry="17.716536"
           sodipodi:rx="17.716536"
           sodipodi:cy="131.10234"
           sodipodi:cx="159.44882"
           id="path5326"
           style="opacity:0.98000004;fill:#ff9955;stroke:none"
           sodipodi:type="arc" />
        <path
           transform="matrix(0.39775488,0,0,0.39775488,163.46942,75.53176)"
           d="m 177.16536,131.10234 c 0,9.78457 -7.93197,17.71654 -17.71654,17.71654 -9.78457,0 -17.71653,-7.93197 -17.71653,-17.71654 0,-9.78457 7.93196,-17.71653 17.71653,-17.71653 9.78457,0 17.71654,7.93196 17.71654,17.71653 z"
           sodipodi:ry="17.716536"
           sodipodi:rx="17.716536"
           sodipodi:cy="131.10234"
           sodipodi:cx="159.44882"
           id="path5328"
           style="opacity:0.98000004;fill:#ff9955;stroke:none"
           sodipodi:type="arc" />
        <path
           sodipodi:type="arc"
           style="opacity:0.98000004;fill:#ff9955;stroke:none"
           id="path5330"
           sodipodi:cx="159.44882"
           sodipodi:cy="131.10234"
           sodipodi:rx="17.716536"
           sodipodi:ry="17.716536"
           d="m 177.16536,131.10234 c 0,9.78457 -7.93197,17.71654 -17.71654,17.71654 -9.78457,0 -17.71653,-7.93197 -17.71653,-17.71654 0,-9.78457 7.93196,-17.71653 17.71653,-17.71653 9.78457,0 17.71654,7.93196 17.71654,17.71653 z"
           transform="matrix(0.39775488,0,0,0.39775488,177.5631,75.53176)" />
        <path
           transform="matrix(0.39775488,0,0,0.39775488,78.509616,89.22768)"
           d="m 177.16536,131.10234 c 0,9.78457 -7.93197,17.71654 -17.71654,17.71654 -9.78457,0 -17.71653,-7.93197 -17.71653,-17.71654 0,-9.78457 7.93196,-17.71653 17.71653,-17.71653 9.78457,0 17.71654,7.93196 17.71654,17.71653 z"
           sodipodi:ry="17.716536"
           sodipodi:rx="17.716536"
           sodipodi:cy="131.10234"
           sodipodi:cx="159.44882"
           id="path5332"
           style="opacity:0.98000004;fill:#ff9955;stroke:none"
           sodipodi:type="arc" />
        <path
           sodipodi:type="arc"
           style="opacity:0.98000004;fill:#ff9955;stroke:none"
           id="path5334"
           sodipodi:cx="159.44882"
           sodipodi:cy="131.10234"
           sodipodi:rx="17.716536"
           sodipodi:ry="17.716536"
           d="m 177.16536,131.10234 c 0,9.78457 -7.93197,17.71654 -17.71654,17.71654 -9.78457,0 -17.71653,-7.93197 -17.71653,-17.71654 0,-9.78457 7.93196,-17.71653 17.71653,-17.71653 9.78457,0 17.71654,7.93196 17.71654,17.71653 z"
           transform="matrix(0.39775488,0,0,0.39775488,93.001049,89.62543)" />
        <path
           transform="matrix(0.39775488,0,0,0.39775488,107.09472,89.62543)"
           d="m 177.16536,131.10234 c 0,9.78457 -7.93197,17.71654 -17.71654,17.71654 -9.78457,0 -17.71653,-7.93197 -17.71653,-17.71654 0,-9.78457 7.93196,-17.71653 17.71653,-17.71653 9.78457,0 17.71654,7.93196 17.71654,17.71653 z"
           sodipodi:ry="17.716536"
           sodipodi:rx="17.716536"
           sodipodi:cy="131.10234"
           sodipodi:cx="159.44882"
           id="path5336"
           style="opacity:0.98000004;fill:#ff9955;stroke:none"
           sodipodi:type="arc" />
        <path
           sodipodi:type="arc"
           style="opacity:0.98000004;fill:#ff9955;stroke:none"
           id="path5338"
           sodipodi:cx="159.44882"
           sodipodi:cy="131.10234"
           sodipodi:rx="17.716536"
           sodipodi:ry="17.716536"
           d="m 177.16536,131.10234 c 0,9.78457 -7.93197,17.71654 -17.71654,17.71654 -9.78457,0 -17.71653,-7.93197 -17.71653,-17.71654 0,-9.78457 7.93196,-17.71653 17.71653,-17.71653 9.78457,0 17.71654,7.93196 17.71654,17.71653 z"
           transform="matrix(0.39775488,0,0,0.39775488,120.79064,89.22768)" />
        <path
           transform="matrix(0.39775488,0,0,0.39775488,135.28207,89.62543)"
           d="m 177.16536,131.10234 c 0,9.78457 -7.93197,17.71654 -17.71654,17.71654 -9.78457,0 -17.71653,-7.93197 -17.71653,-17.71654 0,-9.78457 7.93196,-17.71653 17.71653,-17.71653 9.78457,0 17.71654,7.93196 17.71654,17.71653 z"
           sodipodi:ry="17.716536"
           sodipodi:rx="17.716536"
           sodipodi:cy="131.10234"
           sodipodi:cx="159.44882"
           id="path5340"
           style="opacity:0.98000004;fill:#ff9955;stroke:none"
           sodipodi:type="arc" />
        <path
           sodipodi:type="arc"
           style="opacity:0.98000004;fill:#ff9955;stroke:none"
           id="path5342"
           sodipodi:cx="159.44882"
           sodipodi:cy="131.10234"
           sodipodi:rx="17.716536"
           sodipodi:ry="17.716536"
           d="m 177.16536,131.10234 c 0,9.78457 -7.93197,17.71654 -17.71654,17.71654 -9.78457,0 -17.71653,-7.93197 -17.71653,-17.71654 0,-9.78457 7.93196,-17.71653 17.71653,-17.71653 9.78457,0 17.71654,7.93196 17.71654,17.71653 z"
           transform="matrix(0.39775488,0,0,0.39775488,149.37575,89.62543)" />
        <path
           sodipodi:type="arc"
           style="opacity:0.98000004;fill:#ff9955;stroke:none"
           id="path5344"
           sodipodi:cx="159.44882"
           sodipodi:cy="131.10234"
           sodipodi:rx="17.716536"
           sodipodi:ry="17.716536"
           d="m 177.16536,131.10234 c 0,9.78457 -7.93197,17.71654 -17.71654,17.71654 -9.78457,0 -17.71653,-7.93197 -17.71653,-17.71654 0,-9.78457 7.93196,-17.71653 17.71653,-17.71653 9.78457,0 17.71654,7.93196 17.71654,17.71653 z"
           transform="matrix(0.39775488,0,0,0.39775488,163.46942,89.62543)" />
        <path
           transform="matrix(0.39775488,0,0,0.39775488,177.5631,89.62543)"
           d="m 177.16536,131.10234 c 0,9.78457 -7.93197,17.71654 -17.71654,17.71654 -9.78457,0 -17.71653,-7.93197 -17.71653,-17.71654 0,-9.78457 7.93196,-17.71653 17.71653,-17.71653 9.78457,0 17.71654,7.93196 17.71654,17.71653 z"
           sodipodi:ry="17.716536"
           sodipodi:rx="17.716536"
           sodipodi:cy="131.10234"
           sodipodi:cx="159.44882"
           id="path5346"
           style="opacity:0.98000004;fill:#ff9955;stroke:none"
           sodipodi:type="arc" />
      </g>
    </g>
  </g>
</svg>
